<svg classwidth="39" height="39" viewBox="0 0 39 39" fill="none" xmlns="http://www.w3.org/2000/svg">
<circle cx="19.5" cy="19.5" r="19.5" fill="#081D2D"/>
<path d="M25 13.5945V30H15V28.2839C16.7299 28.2839 18.1312 26.9951 18.1312 25.4055V23.1083C18.1312 21.5186 16.7299 20.2299 15 20.2299V18.5138C16.5761 18.5138 17.9812 19.1838 18.8963 20.2299C18.9137 20.2504 18.9311 20.2697 18.9472 20.2902C19.6081 21.0685 20 22.0462 20 23.1083V25.4055C20 26.4949 19.5871 27.4965 18.8963 28.2839H23.1312V13.5945C23.1312 12.0049 21.7299 10.7172 20 10.7172C18.2701 10.7172 16.8688 12.0049 16.8688 13.5945C16.8688 15.1841 18.2701 16.4718 20 16.4718C20.4489 16.4718 20.8767 16.3852 21.2624 16.2268V18.0409C20.8594 18.1377 20.4365 18.189 20 18.189C17.2383 18.189 15 16.1322 15 13.5945C15 11.0568 17.2383 9 20 9C22.7617 9 25 11.0568 25 13.5945Z" fill="#1D4D6B"/>
</svg>
